<svg width="251" height="226" viewBox="0 0 251 226" fill="none" xmlns="http://www.w3.org/2000/svg">
<g clip-path="url(#clip0_58_262)">
<path d="M125.234 30.0027L220.798 195.525" stroke="black" stroke-opacity="0.75" stroke-width="60" stroke-linecap="round"/>
<path fill-rule="evenodd" clip-rule="evenodd" d="M168.912 165.655L30.1586 166.003C13.5901 166.045 0.192424 179.51 0.233983 196.078C0.275544 212.647 13.7407 226.044 30.3091 226.003L220.352 225.526C210.152 225.365 200.289 220.003 194.817 210.525L168.912 165.655ZM228.572 224.508C232.138 223.554 235.442 221.959 238.352 219.856C237.538 220.442 236.686 220.993 235.798 221.506C233.474 222.847 231.046 223.843 228.572 224.508ZM250.654 198.484C250.229 202.826 248.878 206.898 246.8 210.498C248.921 206.806 250.232 202.703 250.654 198.484ZM249.767 187.699C249.036 184.985 247.933 182.424 246.518 180.073L246.779 180.525C248.111 182.832 249.102 185.243 249.767 187.699Z" fill="black" fill-opacity="0.5"/>
<path d="M30 195.522L125.564 30" stroke="black" stroke-width="60" stroke-linecap="round"/>
</g>
<defs>
<clipPath id="clip0_58_262">
<rect width="251" height="226" fill="white"/>
</clipPath>
</defs>
</svg>
