<svg width="251" height="226" viewBox="0 0 251 226" fill="none" xmlns="http://www.w3.org/2000/svg">
<g clip-path="url(#clip0_58_248)">
<path d="M125.234 30.0027L220.798 195.525" stroke="white" stroke-opacity="0.75" stroke-width="60" stroke-linecap="round"/>
<path fill-rule="evenodd" clip-rule="evenodd" d="M168.912 165.655L30.1586 166.003C13.5901 166.045 0.192426 179.51 0.233983 196.078C0.275548 212.647 13.7407 226.044 30.3091 226.003L220.352 225.526C210.152 225.365 200.289 220.003 194.817 210.525L168.912 165.655ZM228.57 224.508C232.138 223.554 235.443 221.959 238.355 219.853C237.54 220.441 236.687 220.992 235.798 221.506C233.474 222.848 231.044 223.843 228.57 224.508ZM250.655 198.476C250.23 202.824 248.877 206.9 246.797 210.504C248.921 206.808 250.234 202.701 250.655 198.476ZM249.77 187.71C249.039 184.992 247.935 182.427 246.518 180.073L246.779 180.525C248.113 182.836 249.105 185.25 249.77 187.71Z" fill="white" fill-opacity="0.5"/>
<path d="M30 195.522L125.564 30" stroke="white" stroke-width="60" stroke-linecap="round"/>
</g>
<defs>
<clipPath id="clip0_58_248">
<rect width="251" height="226" fill="white"/>
</clipPath>
</defs>
</svg>
