<svg width="251" height="226" viewBox="0 0 251 226" fill="none" xmlns="http://www.w3.org/2000/svg">
<g clip-path="url(#clip0_58_262)">
<path d="M30.2339 196.003L220.798 195.525" stroke="black" stroke-opacity="0.75" stroke-width="60" stroke-linecap="round"/>
<path fill-rule="evenodd" clip-rule="evenodd" d="M151.215 15.0027C142.931 0.653935 124.583 -4.26234 110.234 4.0219C95.8853 12.3062 90.969 30.6539 99.2532 45.0027L168.912 165.655L220.723 165.525C231.667 165.498 241.257 171.334 246.519 180.074L151.215 15.0027ZM249.765 187.69C250.432 190.164 250.791 192.765 250.798 195.45C250.8 196.473 250.752 197.484 250.654 198.481C251.011 194.909 250.73 191.252 249.765 187.69ZM246.794 210.509C244.671 214.184 241.791 217.367 238.367 219.845C241.895 217.303 244.728 214.1 246.794 210.509ZM228.539 224.517C226.093 225.168 223.524 225.518 220.873 225.525L220.355 225.526C223.084 225.569 225.838 225.24 228.539 224.517Z" fill="black" fill-opacity="0.5"/>
<path d="M30 195.522L125.564 30" stroke="black" stroke-width="60" stroke-linecap="round"/>
</g>
<defs>
<clipPath id="clip0_58_262">
<rect width="251" height="226" fill="white"/>
</clipPath>
</defs>
</svg>
